<mxfile host="65bd71144e">
    <diagram id="arquitetura-case" name="Arquitetura Completa">
        <mxGraphModel dx="1434" dy="844" grid="1" gridSize="10" guides="1" tooltips="1" connect="1" arrows="1" fold="1" page="1" pageScale="1" pageWidth="1600" pageHeight="1200" math="0" shadow="0">
            <root>
                <mxCell id="0"/>
                <mxCell id="1" parent="0"/>
                
                <!-- TÍTULO -->
                <mxCell id="titulo" value="Arquitetura Cloud-Native - AWS EKS + Datadog" style="text;html=1;strokeColor=none;fillColor=none;align=center;verticalAlign=middle;whiteSpace=wrap;rounded=0;fontSize=24;fontStyle=1" vertex="1" parent="1">
                    <mxGeometry x="400" y="20" width="800" height="40" as="geometry"/>
                </mxCell>
                
                <!-- AWS CLOUD -->
                <mxCell id="aws-cloud" value="" style="sketch=0;outlineConnect=0;gradientColor=none;html=1;whiteSpace=wrap;fontSize=12;fontStyle=0;shape=mxgraph.aws4.group;grIcon=mxgraph.aws4.group_aws_cloud;strokeColor=#232F3E;fillColor=none;verticalAlign=top;align=left;spacingLeft=30;fontColor=#232F3E;dashed=0;" vertex="1" parent="1">
                    <mxGeometry x="80" y="80" width="1440" height="1040" as="geometry"/>
                </mxCell>
                
                <!-- VPC -->
                <mxCell id="vpc" value="VPC 10.0.0.0/16" style="sketch=0;outlineConnect=0;gradientColor=none;html=1;whiteSpace=wrap;fontSize=12;fontStyle=0;shape=mxgraph.aws4.group;grIcon=mxgraph.aws4.group_vpc;strokeColor=#248814;fillColor=none;verticalAlign=top;align=left;spacingLeft=30;fontColor=#AAB7B8;dashed=0;" vertex="1" parent="1">
                    <mxGeometry x="120" y="140" width="1360" height="920" as="geometry"/>
                </mxCell>
                
                <!-- PUBLIC SUBNETS -->
                <mxCell id="public-subnet-1" value="Public Subnet 1&#10;10.0.1.0/24&#10;us-east-1a" style="sketch=0;outlineConnect=0;gradientColor=none;html=1;whiteSpace=wrap;fontSize=11;fontStyle=0;shape=mxgraph.aws4.group;grIcon=mxgraph.aws4.group_security_group;grStroke=0;strokeColor=#248814;fillColor=#E9F3E6;verticalAlign=top;align=left;spacingLeft=30;fontColor=#248814;dashed=0;" vertex="1" parent="1">
                    <mxGeometry x="160" y="200" width="280" height="200" as="geometry"/>
                </mxCell>
                
                <mxCell id="public-subnet-2" value="Public Subnet 2&#10;10.0.2.0/24&#10;us-east-1b" style="sketch=0;outlineConnect=0;gradientColor=none;html=1;whiteSpace=wrap;fontSize=11;fontStyle=0;shape=mxgraph.aws4.group;grIcon=mxgraph.aws4.group_security_group;grStroke=0;strokeColor=#248814;fillColor=#E9F3E6;verticalAlign=top;align=left;spacingLeft=30;fontColor=#248814;dashed=0;" vertex="1" parent="1">
                    <mxGeometry x="480" y="200" width="280" height="200" as="geometry"/>
                </mxCell>
                
                <!-- PRIVATE SUBNETS -->
                <mxCell id="private-subnet-1" value="Private Subnet 1&#10;10.0.10.0/24&#10;us-east-1a" style="sketch=0;outlineConnect=0;gradientColor=none;html=1;whiteSpace=wrap;fontSize=11;fontStyle=0;shape=mxgraph.aws4.group;grIcon=mxgraph.aws4.group_security_group;grStroke=0;strokeColor=#147EBA;fillColor=#E6F2F8;verticalAlign=top;align=left;spacingLeft=30;fontColor=#147EBA;dashed=0;" vertex="1" parent="1">
                    <mxGeometry x="160" y="440" width="600" height="580" as="geometry"/>
                </mxCell>
                
                <mxCell id="private-subnet-2" value="Private Subnet 2&#10;10.0.11.0/24&#10;us-east-1b" style="sketch=0;outlineConnect=0;gradientColor=none;html=1;whiteSpace=wrap;fontSize=11;fontStyle=0;shape=mxgraph.aws4.group;grIcon=mxgraph.aws4.group_security_group;grStroke=0;strokeColor=#147EBA;fillColor=#E6F2F8;verticalAlign=top;align=left;spacingLeft=30;fontColor=#147EBA;dashed=0;" vertex="1" parent="1">
                    <mxGeometry x="800" y="440" width="600" height="580" as="geometry"/>
                </mxCell>
                
                <!-- INTERNET GATEWAY -->
                <mxCell id="igw" value="Internet&#10;Gateway" style="sketch=0;outlineConnect=0;fontColor=#232F3E;gradientColor=none;fillColor=#4D27AA;strokeColor=none;dashed=0;verticalLabelPosition=bottom;verticalAlign=top;align=center;html=1;fontSize=12;fontStyle=0;aspect=fixed;pointerEvents=1;shape=mxgraph.aws4.internet_gateway;" vertex="1" parent="1">
                    <mxGeometry x="280" y="240" width="60" height="60" as="geometry"/>
                </mxCell>
                
                <!-- NAT GATEWAYS -->
                <mxCell id="nat-1" value="NAT&#10;Gateway" style="sketch=0;outlineConnect=0;fontColor=#232F3E;gradientColor=none;fillColor=#4D27AA;strokeColor=none;dashed=0;verticalLabelPosition=bottom;verticalAlign=top;align=center;html=1;fontSize=12;fontStyle=0;aspect=fixed;pointerEvents=1;shape=mxgraph.aws4.nat_gateway;" vertex="1" parent="1">
                    <mxGeometry x="200" y="320" width="60" height="60" as="geometry"/>
                </mxCell>
                
                <mxCell id="nat-2" value="NAT&#10;Gateway" style="sketch=0;outlineConnect=0;fontColor=#232F3E;gradientColor=none;fillColor=#4D27AA;strokeColor=none;dashed=0;verticalLabelPosition=bottom;verticalAlign=top;align=center;html=1;fontSize=12;fontStyle=0;aspect=fixed;pointerEvents=1;shape=mxgraph.aws4.nat_gateway;" vertex="1" parent="1">
                    <mxGeometry x="680" y="320" width="60" height="60" as="geometry"/>
                </mxCell>
                
                <!-- EKS CLUSTER -->
                <mxCell id="eks-cluster" value="Amazon EKS Cluster&#10;case-eks" style="sketch=0;points=[[0,0,0],[0.25,0,0],[0.5,0,0],[0.75,0,0],[1,0,0],[0,1,0],[0.25,1,0],[0.5,1,0],[0.75,1,0],[1,1,0],[0,0.25,0],[0,0.5,0],[0,0.75,0],[1,0.25,0],[1,0.5,0],[1,0.75,0]];outlineConnect=0;fontColor=#232F3E;gradientColor=#F78E04;gradientDirection=north;fillColor=#D05C17;strokeColor=#ffffff;dashed=0;verticalLabelPosition=bottom;verticalAlign=top;align=center;html=1;fontSize=12;fontStyle=1;aspect=fixed;shape=mxgraph.aws4.resourceIcon;resIcon=mxgraph.aws4.eks;" vertex="1" parent="1">
                    <mxGeometry x="680" y="600" width="80" height="80" as="geometry"/>
                </mxCell>
                
                <!-- FARGATE PROFILES -->
                <mxCell id="fargate-case" value="Fargate Profile&#10;case namespace" style="rounded=1;whiteSpace=wrap;html=1;fillColor=#dae8fc;strokeColor=#6c8ebf;fontStyle=1" vertex="1" parent="1">
                    <mxGeometry x="200" y="520" width="240" height="60" as="geometry"/>
                </mxCell>
                
                <mxCell id="fargate-coredns" value="Fargate Profile&#10;kube-system (CoreDNS)" style="rounded=1;whiteSpace=wrap;html=1;fillColor=#dae8fc;strokeColor=#6c8ebf;fontStyle=1" vertex="1" parent="1">
                    <mxGeometry x="200" y="600" width="240" height="60" as="geometry"/>
                </mxCell>
                
                <!-- BACKEND PODS -->
                <mxCell id="backend-blue" value="Backend&#10;(Blue)" style="sketch=0;html=1;dashed=0;whitespace=wrap;fillColor=#2875E2;strokeColor=#ffffff;points=[[0.005,0.63,0],[0.1,0.2,0],[0.9,0.2,0],[0.5,0,0],[0.995,0.63,0],[0.72,0.99,0],[0.5,1,0],[0.28,0.99,0]];verticalLabelPosition=bottom;align=center;verticalAlign=top;shape=mxgraph.kubernetes.icon;prIcon=pod" vertex="1" parent="1">
                    <mxGeometry x="220" y="720" width="80" height="80" as="geometry"/>
                </mxCell>
                
                <mxCell id="backend-green" value="Backend&#10;(Green)" style="sketch=0;html=1;dashed=0;whitespace=wrap;fillColor=#00C853;strokeColor=#ffffff;points=[[0.005,0.63,0],[0.1,0.2,0],[0.9,0.2,0],[0.5,0,0],[0.995,0.63,0],[0.72,0.99,0],[0.5,1,0],[0.28,0.99,0]];verticalLabelPosition=bottom;align=center;verticalAlign=top;shape=mxgraph.kubernetes.icon;prIcon=pod" vertex="1" parent="1">
                    <mxGeometry x="340" y="720" width="80" height="80" as="geometry"/>
                </mxCell>
                
                <!-- FRONTEND PODS -->
                <mxCell id="frontend-blue" value="Frontend&#10;(Blue)" style="sketch=0;html=1;dashed=0;whitespace=wrap;fillColor=#2875E2;strokeColor=#ffffff;points=[[0.005,0.63,0],[0.1,0.2,0],[0.9,0.2,0],[0.5,0,0],[0.995,0.63,0],[0.72,0.99,0],[0.5,1,0],[0.28,0.99,0]];verticalLabelPosition=bottom;align=center;verticalAlign=top;shape=mxgraph.kubernetes.icon;prIcon=pod" vertex="1" parent="1">
                    <mxGeometry x="220" y="880" width="80" height="80" as="geometry"/>
                </mxCell>
                
                <mxCell id="frontend-green" value="Frontend&#10;(Green)" style="sketch=0;html=1;dashed=0;whitespace=wrap;fillColor=#00C853;strokeColor=#ffffff;points=[[0.005,0.63,0],[0.1,0.2,0],[0.9,0.2,0],[0.5,0,0],[0.995,0.63,0],[0.72,0.99,0],[0.5,1,0],[0.28,0.99,0]];verticalLabelPosition=bottom;align=center;verticalAlign=top;shape=mxgraph.kubernetes.icon;prIcon=pod" vertex="1" parent="1">
                    <mxGeometry x="340" y="880" width="80" height="80" as="geometry"/>
                </mxCell>
                
                <!-- SERVICES K8S -->
                <mxCell id="backend-svc" value="Backend&#10;Service" style="sketch=0;html=1;dashed=0;whitespace=wrap;fillColor=#326CE5;strokeColor=#ffffff;points=[[0.005,0.63,0],[0.1,0.2,0],[0.9,0.2,0],[0.5,0,0],[0.995,0.63,0],[0.72,0.99,0],[0.5,1,0],[0.28,0.99,0]];verticalLabelPosition=bottom;align=center;verticalAlign=top;shape=mxgraph.kubernetes.icon;prIcon=svc" vertex="1" parent="1">
                    <mxGeometry x="520" y="720" width="70" height="70" as="geometry"/>
                </mxCell>
                
                <mxCell id="frontend-svc" value="Frontend&#10;Service" style="sketch=0;html=1;dashed=0;whitespace=wrap;fillColor=#326CE5;strokeColor=#ffffff;points=[[0.005,0.63,0],[0.1,0.2,0],[0.9,0.2,0],[0.5,0,0],[0.995,0.63,0],[0.72,0.99,0],[0.5,1,0],[0.28,0.99,0]];verticalLabelPosition=bottom;align=center;verticalAlign=top;shape=mxgraph.kubernetes.icon;prIcon=svc" vertex="1" parent="1">
                    <mxGeometry x="520" y="880" width="70" height="70" as="geometry"/>
                </mxCell>
                
                <!-- INGRESS -->
                <mxCell id="ingress" value="Ingress&#10;(ALB)" style="sketch=0;html=1;dashed=0;whitespace=wrap;fillColor=#326CE5;strokeColor=#ffffff;points=[[0.005,0.63,0],[0.1,0.2,0],[0.9,0.2,0],[0.5,0,0],[0.995,0.63,0],[0.72,0.99,0],[0.5,1,0],[0.28,0.99,0]];verticalLabelPosition=bottom;align=center;verticalAlign=top;shape=mxgraph.kubernetes.icon;prIcon=ing" vertex="1" parent="1">
                    <mxGeometry x="520" y="600" width="70" height="70" as="geometry"/>
                </mxCell>
                
                <!-- DATADOG CLUSTER AGENT -->
                <mxCell id="datadog-agent" value="Datadog&#10;Cluster Agent" style="shape=image;html=1;verticalAlign=top;verticalLabelPosition=bottom;labelBackgroundColor=#ffffff;imageAspect=0;aspect=fixed;image=https://cdn4.iconfinder.com/data/icons/logos-and-brands/512/89_Datadog_logo_logos-128.png" vertex="1" parent="1">
                    <mxGeometry x="860" y="720" width="80" height="80" as="geometry"/>
                </mxCell>
                
                <!-- DYNAMODB -->
                <mxCell id="dynamodb" value="DynamoDB&#10;orders table" style="sketch=0;points=[[0,0,0],[0.25,0,0],[0.5,0,0],[0.75,0,0],[1,0,0],[0,1,0],[0.25,1,0],[0.5,1,0],[0.75,1,0],[1,1,0],[0,0.25,0],[0,0.5,0],[0,0.75,0],[1,0.25,0],[1,0.5,0],[1,0.75,0]];outlineConnect=0;fontColor=#232F3E;gradientColor=#4D72F3;gradientDirection=north;fillColor=#3334B9;strokeColor=#ffffff;dashed=0;verticalLabelPosition=bottom;verticalAlign=top;align=center;html=1;fontSize=12;fontStyle=0;aspect=fixed;shape=mxgraph.aws4.resourceIcon;resIcon=mxgraph.aws4.dynamodb;" vertex="1" parent="1">
                    <mxGeometry x="1080" y="720" width="80" height="80" as="geometry"/>
                </mxCell>
                
                <!-- ECR -->
                <mxCell id="ecr" value="ECR&#10;Repositories" style="sketch=0;points=[[0,0,0],[0.25,0,0],[0.5,0,0],[0.75,0,0],[1,0,0],[0,1,0],[0.25,1,0],[0.5,1,0],[0.75,1,0],[1,1,0],[0,0.25,0],[0,0.5,0],[0,0.75,0],[1,0.25,0],[1,0.5,0],[1,0.75,0]];outlineConnect=0;fontColor=#232F3E;gradientColor=#F78E04;gradientDirection=north;fillColor=#D05C17;strokeColor=#ffffff;dashed=0;verticalLabelPosition=bottom;verticalAlign=top;align=center;html=1;fontSize=12;fontStyle=0;aspect=fixed;shape=mxgraph.aws4.resourceIcon;resIcon=mxgraph.aws4.ecr;" vertex="1" parent="1">
                    <mxGeometry x="1280" y="720" width="80" height="80" as="geometry"/>
                </mxCell>
                
                <!-- SECRETS MANAGER -->
                <mxCell id="secrets" value="Secrets&#10;Manager" style="sketch=0;points=[[0,0,0],[0.25,0,0],[0.5,0,0],[0.75,0,0],[1,0,0],[0,1,0],[0.25,1,0],[0.5,1,0],[0.75,1,0],[1,1,0],[0,0.25,0],[0,0.5,0],[0,0.75,0],[1,0.25,0],[1,0.5,0],[1,0.75,0]];outlineConnect=0;fontColor=#232F3E;gradientColor=#F54749;gradientDirection=north;fillColor=#C7131F;strokeColor=#ffffff;dashed=0;verticalLabelPosition=bottom;verticalAlign=top;align=center;html=1;fontSize=12;fontStyle=0;aspect=fixed;shape=mxgraph.aws4.resourceIcon;resIcon=mxgraph.aws4.secrets_manager;" vertex="1" parent="1">
                    <mxGeometry x="1080" y="880" width="80" height="80" as="geometry"/>
                </mxCell>
                
                <!-- IAM OIDC -->
                <mxCell id="iam" value="IAM&#10;OIDC + IRSA" style="sketch=0;points=[[0,0,0],[0.25,0,0],[0.5,0,0],[0.75,0,0],[1,0,0],[0,1,0],[0.25,1,0],[0.5,1,0],[0.75,1,0],[1,1,0],[0,0.25,0],[0,0.5,0],[0,0.75,0],[1,0.25,0],[1,0.5,0],[1,0.75,0]];outlineConnect=0;fontColor=#232F3E;gradientColor=#F54749;gradientDirection=north;fillColor=#C7131F;strokeColor=#ffffff;dashed=0;verticalLabelPosition=bottom;verticalAlign=top;align=center;html=1;fontSize=12;fontStyle=0;aspect=fixed;shape=mxgraph.aws4.resourceIcon;resIcon=mxgraph.aws4.iam;" vertex="1" parent="1">
                    <mxGeometry x="1280" y="880" width="80" height="80" as="geometry"/>
                </mxCell>
                
                <!-- CLOUDWATCH LOGS -->
                <mxCell id="cloudwatch" value="CloudWatch&#10;Logs" style="sketch=0;points=[[0,0,0],[0.25,0,0],[0.5,0,0],[0.75,0,0],[1,0,0],[0,1,0],[0.25,1,0],[0.5,1,0],[0.75,1,0],[1,1,0],[0,0.25,0],[0,0.5,0],[0,0.75,0],[1,0.25,0],[1,0.5,0],[1,0.75,0]];outlineConnect=0;fontColor=#232F3E;gradientColor=#F34482;gradientDirection=north;fillColor=#BC1356;strokeColor=#ffffff;dashed=0;verticalLabelPosition=bottom;verticalAlign=top;align=center;html=1;fontSize=12;fontStyle=0;aspect=fixed;shape=mxgraph.aws4.resourceIcon;resIcon=mxgraph.aws4.cloudwatch;" vertex="1" parent="1">
                    <mxGeometry x="1080" y="600" width="80" height="80" as="geometry"/>
                </mxCell>
                
                <!-- GITHUB ACTIONS -->
                <mxCell id="github" value="GitHub Actions&#10;CI/CD" style="shape=image;html=1;verticalAlign=top;verticalLabelPosition=bottom;labelBackgroundColor=#ffffff;imageAspect=0;aspect=fixed;image=https://cdn4.iconfinder.com/data/icons/ionicons/512/icon-social-github-128.png" vertex="1" parent="1">
                    <mxGeometry x="40" y="600" width="80" height="80" as="geometry"/>
                </mxCell>
                
                <!-- DATADOG SAAS -->
                <mxCell id="datadog-saas" value="Datadog SaaS&#10;APM + Logs + Metrics" style="shape=image;html=1;verticalAlign=top;verticalLabelPosition=bottom;labelBackgroundColor=#ffffff;imageAspect=0;aspect=fixed;image=https://cdn4.iconfinder.com/data/icons/logos-and-brands/512/89_Datadog_logo_logos-128.png;fillColor=#fff2cc;strokeColor=#d6b656;" vertex="1" parent="1">
                    <mxGeometry x="1520" y="600" width="100" height="100" as="geometry"/>
                </mxCell>
                
                <!-- USERS -->
                <mxCell id="users" value="Users" style="sketch=0;outlineConnect=0;fontColor=#232F3E;gradientColor=none;fillColor=#232F3D;strokeColor=none;dashed=0;verticalLabelPosition=bottom;verticalAlign=top;align=center;html=1;fontSize=12;fontStyle=0;aspect=fixed;pointerEvents=1;shape=mxgraph.aws4.users;" vertex="1" parent="1">
                    <mxGeometry x="40" y="240" width="78" height="78" as="geometry"/>
                </mxCell>
                
                <!-- CONNECTIONS -->
                <mxCell id="edge1" style="edgeStyle=orthogonalEdgeStyle;rounded=0;orthogonalLoop=1;jettySize=auto;html=1;exitX=1;exitY=0.5;exitDx=0;exitDy=0;exitPerimeter=0;entryX=0;entryY=0.5;entryDx=0;entryDy=0;entryPerimeter=0;strokeWidth=2;strokeColor=#666666;" edge="1" parent="1" source="users" target="igw">
                    <mxGeometry relative="1" as="geometry"/>
                </mxCell>
                
                <mxCell id="edge2" style="edgeStyle=orthogonalEdgeStyle;rounded=0;orthogonalLoop=1;jettySize=auto;html=1;exitX=1;exitY=0.5;exitDx=0;exitDy=0;exitPerimeter=0;strokeWidth=2;strokeColor=#666666;" edge="1" parent="1" source="igw">
                    <mxGeometry relative="1" as="geometry">
                        <mxPoint x="520" y="635" as="targetPoint"/>
                    </mxGeometry>
                </mxCell>
                
                <mxCell id="edge3" style="edgeStyle=orthogonalEdgeStyle;rounded=0;orthogonalLoop=1;jettySize=auto;html=1;exitX=1;exitY=0.5;exitDx=0;exitDy=0;exitPerimeter=0;entryX=0;entryY=0.5;entryDx=0;entryDy=0;entryPerimeter=0;strokeWidth=2;strokeColor=#0066CC;" edge="1" parent="1" source="ingress" target="backend-svc">
                    <mxGeometry relative="1" as="geometry"/>
                </mxCell>
                
                <mxCell id="edge4" style="edgeStyle=orthogonalEdgeStyle;rounded=0;orthogonalLoop=1;jettySize=auto;html=1;exitX=0;exitY=0.5;exitDx=0;exitDy=0;exitPerimeter=0;entryX=1;entryY=0.5;entryDx=0;entryDy=0;entryPerimeter=0;strokeWidth=2;strokeColor=#0066CC;" edge="1" parent="1" source="backend-svc" target="backend-blue">
                    <mxGeometry relative="1" as="geometry"/>
                </mxCell>
                
                <mxCell id="edge5" style="edgeStyle=orthogonalEdgeStyle;rounded=0;orthogonalLoop=1;jettySize=auto;html=1;exitX=0;exitY=0.5;exitDx=0;exitDy=0;exitPerimeter=0;entryX=1;entryY=0.5;entryDx=0;entryDy=0;entryPerimeter=0;strokeWidth=2;strokeColor=#00C853;dashed=1;" edge="1" parent="1" source="backend-svc" target="backend-green">
                    <mxGeometry relative="1" as="geometry"/>
                </mxCell>
                
                <mxCell id="edge6" style="edgeStyle=orthogonalEdgeStyle;rounded=0;orthogonalLoop=1;jettySize=auto;html=1;exitX=1;exitY=0.5;exitDx=0;exitDy=0;exitPerimeter=0;strokeWidth=2;strokeColor=#0066CC;" edge="1" parent="1" source="ingress">
                    <mxGeometry relative="1" as="geometry">
                        <mxPoint x="520" y="915" as="targetPoint"/>
                    </mxGeometry>
                </mxCell>
                
                <mxCell id="edge7" style="edgeStyle=orthogonalEdgeStyle;rounded=0;orthogonalLoop=1;jettySize=auto;html=1;exitX=0;exitY=0.5;exitDx=0;exitDy=0;exitPerimeter=0;entryX=1;entryY=0.5;entryDx=0;entryDy=0;entryPerimeter=0;strokeWidth=2;strokeColor=#0066CC;" edge="1" parent="1" source="frontend-svc" target="frontend-blue">
                    <mxGeometry relative="1" as="geometry"/>
                </mxCell>
                
                <mxCell id="edge8" style="edgeStyle=orthogonalEdgeStyle;rounded=0;orthogonalLoop=1;jettySize=auto;html=1;exitX=1;exitY=0.5;exitDx=0;exitDy=0;exitPerimeter=0;entryX=0;entryY=0.5;entryDx=0;entryDy=0;entryPerimeter=0;strokeWidth=2;strokeColor=#FF6B00;" edge="1" parent="1" source="backend-blue" target="dynamodb">
                    <mxGeometry relative="1" as="geometry">
                        <Array as="points">
                            <mxPoint x="640" y="760"/>
                            <mxPoint x="640" y="760"/>
                        </Array>
                    </mxGeometry>
                </mxCell>
                
                <mxCell id="edge9" style="edgeStyle=orthogonalEdgeStyle;rounded=0;orthogonalLoop=1;jettySize=auto;html=1;exitX=1;exitY=0.5;exitDx=0;exitDy=0;entryX=0;entryY=0.5;entryDx=0;entryDy=0;entryPerimeter=0;strokeWidth=2;strokeColor=#9933FF;" edge="1" parent="1" source="datadog-agent" target="datadog-saas">
                    <mxGeometry relative="1" as="geometry"/>
                </mxCell>
                
                <mxCell id="edge10" style="edgeStyle=orthogonalEdgeStyle;rounded=0;orthogonalLoop=1;jettySize=auto;html=1;exitX=1;exitY=0.5;exitDx=0;exitDy=0;entryX=0;entryY=0.5;entryDx=0;entryDy=0;entryPerimeter=0;strokeWidth=2;strokeColor=#FF0000;dashed=1;" edge="1" parent="1" source="github" target="ecr">
                    <mxGeometry relative="1" as="geometry">
                        <Array as="points">
                            <mxPoint x="80" y="440"/>
                            <mxPoint x="1320" y="440"/>
                        </Array>
                    </mxGeometry>
                </mxCell>
                
                <mxCell id="edge11" style="edgeStyle=orthogonalEdgeStyle;rounded=0;orthogonalLoop=1;jettySize=auto;html=1;exitX=1;exitY=0.5;exitDx=0;exitDy=0;entryX=0;entryY=0.5;entryDx=0;entryDy=0;entryPerimeter=0;strokeWidth=2;strokeColor=#FF0000;dashed=1;" edge="1" parent="1" source="github" target="eks-cluster">
                    <mxGeometry relative="1" as="geometry">
                        <Array as="points">
                            <mxPoint x="80" y="1000"/>
                            <mxPoint x="640" y="1000"/>
                            <mxPoint x="640" y="640"/>
                        </Array>
                    </mxGeometry>
                </mxCell>
                
                <!-- LABELS -->
                <mxCell id="label-blue-green" value="Blue/Green Deployment" style="text;html=1;strokeColor=none;fillColor=none;align=center;verticalAlign=middle;whiteSpace=wrap;rounded=0;fontSize=14;fontStyle=1;fontColor=#0066CC;" vertex="1" parent="1">
                    <mxGeometry x="200" y="680" width="220" height="30" as="geometry"/>
                </mxCell>
                
                <mxCell id="label-irsa" value="IRSA (no static credentials)" style="text;html=1;strokeColor=none;fillColor=none;align=center;verticalAlign=middle;whiteSpace=wrap;rounded=0;fontSize=11;fontStyle=2;fontColor=#666666;" vertex="1" parent="1">
                    <mxGeometry x="700" y="780" width="200" height="20" as="geometry"/>
                </mxCell>
                
                <mxCell id="label-fargate" value="Fargate Serverless Compute&#10;(No EC2 instances)" style="text;html=1;strokeColor=none;fillColor=#fff2cc;align=center;verticalAlign=middle;whiteSpace=wrap;rounded=1;fontSize=12;fontStyle=1;fontColor=#000000;" vertex="1" parent="1">
                    <mxGeometry x="200" y="480" width="240" height="30" as="geometry"/>
                </mxCell>
                
                <mxCell id="label-ci-cd" value="CI/CD Pipeline" style="text;html=1;strokeColor=none;fillColor=#f8cecc;align=center;verticalAlign=middle;whiteSpace=wrap;rounded=1;fontSize=11;fontStyle=1;fontColor=#000000;" vertex="1" parent="1">
                    <mxGeometry x="20" y="560" width="120" height="30" as="geometry"/>
                </mxCell>
                
                <!-- LEGEND -->
                <mxCell id="legend-box" value="" style="rounded=1;whiteSpace=wrap;html=1;fillColor=#f5f5f5;strokeColor=#666666;fontColor=#333333;" vertex="1" parent="1">
                    <mxGeometry x="1200" y="140" width="280" height="240" as="geometry"/>
                </mxCell>
                
                <mxCell id="legend-title" value="Legenda" style="text;html=1;strokeColor=none;fillColor=none;align=center;verticalAlign=middle;whiteSpace=wrap;rounded=0;fontSize=16;fontStyle=1" vertex="1" parent="1">
                    <mxGeometry x="1200" y="145" width="280" height="30" as="geometry"/>
                </mxCell>
                
                <mxCell id="legend-1" value="Pod Blue (Active)" style="sketch=0;html=1;dashed=0;whitespace=wrap;fillColor=#2875E2;strokeColor=#ffffff;points=[[0.005,0.63,0],[0.1,0.2,0],[0.9,0.2,0],[0.5,0,0],[0.995,0.63,0],[0.72,0.99,0],[0.5,1,0],[0.28,0.99,0]];verticalLabelPosition=right;align=left;verticalAlign=middle;shape=mxgraph.kubernetes.icon;prIcon=pod;labelPosition=right;" vertex="1" parent="1">
                    <mxGeometry x="1220" y="185" width="40" height="40" as="geometry"/>
                </mxCell>
                
                <mxCell id="legend-2" value="Pod Green (Standby)" style="sketch=0;html=1;dashed=0;whitespace=wrap;fillColor=#00C853;strokeColor=#ffffff;points=[[0.005,0.63,0],[0.1,0.2,0],[0.9,0.2,0],[0.5,0,0],[0.995,0.63,0],[0.72,0.99,0],[0.5,1,0],[0.28,0.99,0]];verticalLabelPosition=right;align=left;verticalAlign=middle;shape=mxgraph.kubernetes.icon;prIcon=pod;labelPosition=right;" vertex="1" parent="1">
                    <mxGeometry x="1220" y="235" width="40" height="40" as="geometry"/>
                </mxCell>
                
                <mxCell id="legend-3" value="Traffic Flow" style="endArrow=classic;html=1;strokeWidth=2;strokeColor=#0066CC;labelBackgroundColor=#f5f5f5;" edge="1" parent="1">
                    <mxGeometry width="50" height="50" relative="1" as="geometry">
                        <mxPoint x="1220" y="295" as="sourcePoint"/>
                        <mxPoint x="1280" y="295" as="targetPoint"/>
                    </mxGeometry>
                </mxCell>
                
                <mxCell id="legend-4" value="CI/CD Deploy" style="endArrow=classic;html=1;strokeWidth=2;strokeColor=#FF0000;dashed=1;labelBackgroundColor=#f5f5f5;" edge="1" parent="1">
                    <mxGeometry width="50" height="50" relative="1" as="geometry">
                        <mxPoint x="1220" y="325" as="sourcePoint"/>
                        <mxPoint x="1280" y="325" as="targetPoint"/>
                    </mxGeometry>
                </mxCell>
                
                <mxCell id="legend-5" value="Observability" style="endArrow=classic;html=1;strokeWidth=2;strokeColor=#9933FF;labelBackgroundColor=#f5f5f5;" edge="1" parent="1">
                    <mxGeometry width="50" height="50" relative="1" as="geometry">
                        <mxPoint x="1220" y="355" as="sourcePoint"/>
                        <mxPoint x="1280" y="355" as="targetPoint"/>
                    </mxGeometry>
                </mxCell>
            </root>
        </mxGraphModel>
    </diagram>
</mxfile>
